<?xml version="1.0" standalone="no"?><!DOCTYPE svg PUBLIC "-//W3C//DTD SVG 1.1//EN" "http://www.w3.org/Graphics/SVG/1.1/DTD/svg11.dtd"><svg t="1786448888064" class="icon" viewBox="0 0 1024 1024" version="1.1" xmlns="http://www.w3.org/2000/svg" p-id="52407" xmlns:xlink="http://www.w3.org/1999/xlink" width="200" height="200"><path d="M512.6656 512.3584m-450.816 0a450.816 450.816 0 1 0 901.632 0 450.816 450.816 0 1 0-901.632 0Z" fill="#ff9553" p-id="52408"></path><path d="M502.272 501.2992m-86.2208 0a86.2208 86.2208 0 1 0 172.4416 0 86.2208 86.2208 0 1 0-172.4416 0Z" fill="#FFFFFF" p-id="52409"></path><path d="M686.7456 225.8944h-348.16c-60.7744 0-110.2848 49.4592-110.2848 110.2848v352.4096c0 60.8256 49.4592 110.2848 110.2848 110.2848h348.16c60.7744 0 110.2848-49.4592 110.2848-110.2848V336.1792c-0.0512-60.8256-49.5104-110.2848-110.2848-110.2848z m-12.9024 448.4096c-4.352 4.3008-9.984 6.4-15.616 6.4a22.1696 22.1696 0 0 1-15.8208-6.6048l-58.368-59.136a139.14112 139.14112 0 0 1-81.7664 26.4704c-77.312 0-140.1856-62.8736-140.1856-140.1344S424.96 361.1136 502.272 361.1136s140.1344 62.8736 140.1344 140.1344c0 30.72-9.984 59.1872-26.8288 82.3296l58.4704 59.2384a22.25152 22.25152 0 0 1-0.2048 31.488z" fill="#FFFFFF" p-id="52410"></path></svg>
