<?xml version="1.0" standalone="no"?><!DOCTYPE svg PUBLIC "-//W3C//DTD SVG 1.1//EN" "http://www.w3.org/Graphics/SVG/1.1/DTD/svg11.dtd"><svg t="1786463234404" class="icon" viewBox="0 0 1024 1024" version="1.1" xmlns="http://www.w3.org/2000/svg" p-id="8026" xmlns:xlink="http://www.w3.org/1999/xlink" width="200" height="200"><path d="M829.952 109.056H176.64c-26.624 0-45.056 28.672-45.056 55.808v731.648c0 71.168 67.072 56.832 91.136 46.08l238.592-108.544c24.064-10.752 63.488-11.264 87.552-0.512l254.464 112.64c24.064 10.752 77.312 5.632 77.312-56.832V164.864c0.512-27.136-24.064-55.808-50.688-55.808zM262.144 281.088h202.24c24.064 0 43.52 19.456 43.52 43.52s-19.456 43.52-43.52 43.52H262.144c-24.064 0-43.52-19.456-43.52-43.52s19.456-43.52 43.52-43.52z m491.008 435.712H262.144c-24.064 0-43.52-19.456-43.52-43.52s19.456-43.52 43.52-43.52h491.008c24.064 0 43.52 19.456 43.52 43.52s-19.456 43.52-43.52 43.52z m0-174.08H262.144c-24.064 0-43.52-19.456-43.52-43.52s19.456-43.52 43.52-43.52h491.008c24.064 0 43.52 19.456 43.52 43.52 0 23.552-19.456 43.52-43.52 43.52z" fill="#f59e0b" p-id="8027"></path></svg>
